<svg width="45" height="45" viewBox="0 0 45 45" fill="none" xmlns="http://www.w3.org/2000/svg">
<path d="M45 22.5C45 34.9264 34.9264 45 22.5 45C10.0736 45 0 34.9264 0 22.5C0 10.0736 10.0736 0 22.5 0C34.9264 0 45 10.0736 45 22.5Z" fill="#FDFBF7"/>
<path d="M22.9995 8.45156C28.269 8.45156 32.5415 12.6596 32.5416 17.8505C32.5416 23.0416 28.2691 27.2504 22.9995 27.2504C22.9505 27.2504 22.9016 27.2467 22.8528 27.246C23.1965 27.9377 23.5891 28.4836 23.9987 28.9199C24.7574 29.7278 25.5903 30.1807 26.3184 30.4872C26.687 30.6422 27.0202 30.7571 27.3203 30.8681C27.6011 30.9721 27.887 31.0838 28.0884 31.2315C28.1949 31.3096 28.3021 31.415 28.3687 31.5578C28.4386 31.7081 28.4488 31.8683 28.4125 32.0244C28.3472 32.3041 28.1296 32.5818 27.8458 32.8684C27.3426 33.3766 26.6372 33.735 25.9379 34.0582C25.217 34.3914 24.4923 34.6916 23.8447 35.0936C23.206 35.4901 22.6789 35.965 22.3559 36.6158C22.034 37.2644 21.8936 38.1311 22.1079 39.349L21.3558 39.4777C21.1209 38.143 21.2618 37.1088 21.67 36.286C22.0771 35.4659 22.7295 34.8977 23.4382 34.4577C24.1383 34.0232 24.9311 33.6928 25.6138 33.3773C26.3181 33.0519 26.9045 32.7428 27.2997 32.3436C27.5658 32.0748 27.6465 31.9267 27.665 31.863C27.6582 31.8564 27.6484 31.8463 27.6327 31.8348C27.5325 31.7612 27.3511 31.6828 27.0516 31.5719C26.771 31.4681 26.4079 31.3424 26.0185 31.1786C25.2305 30.8469 24.2939 30.3419 23.4382 29.4305C22.8996 28.8568 22.3996 28.1296 21.9879 27.1966C17.1941 26.6987 13.4584 22.7048 13.4584 17.8505C13.4585 12.6597 17.7302 8.45169 22.9995 8.45156Z" fill="#FED258"/>
<path d="M22.8528 27.246L22.8596 26.7945L22.1125 26.7833L22.441 27.4445L22.8528 27.246ZM22.1079 39.349L22.1864 39.7939L22.6378 39.7166L22.5595 39.2719L22.1079 39.349ZM21.3558 39.4777L20.9042 39.5549L20.9825 40L21.4343 39.9227L21.3558 39.4777ZM27.665 31.863L28.1058 31.9864L28.1799 31.73L27.9876 31.5422L27.665 31.863ZM21.9879 27.1966L22.4083 27.0166L22.3017 26.7751L22.0359 26.7475L21.9879 27.1966ZM22.9995 8.45156V8.90312C28.0159 8.90312 32.0831 12.909 32.0832 17.8505H32.5416H33C32.9999 12.4102 28.5222 8 22.9995 8V8.45156ZM32.5416 17.8505H32.0832C32.0832 22.7921 28.016 26.7988 22.9995 26.7988V27.2504V27.702C28.5223 27.702 33 23.2909 33 17.8505H32.5416ZM22.9995 27.2504V26.7988C22.9856 26.7988 22.9697 26.7983 22.9453 26.7973C22.9237 26.7964 22.8917 26.7949 22.8596 26.7945L22.8528 27.246L22.8458 27.6974C22.8626 27.6977 22.8795 27.6985 22.9069 27.6996C22.9314 27.7006 22.9644 27.702 22.9995 27.702V27.2504ZM22.8528 27.246L22.441 27.4445C22.8039 28.1746 23.2216 28.7572 23.6622 29.2265L23.9987 28.9199L24.3352 28.6133C23.9566 28.21 23.589 27.7007 23.2645 27.0475L22.8528 27.246ZM23.9987 28.9199L23.6622 29.2265C24.4791 30.0965 25.3742 30.5807 26.1383 30.9024L26.3184 30.4872L26.4985 30.0719C25.8063 29.7805 25.0356 29.3592 24.3352 28.6133L23.9987 28.9199ZM26.3184 30.4872L26.1383 30.9024C26.5193 31.0627 26.8703 31.184 27.1591 31.2909L27.3203 30.8681L27.4814 30.4454C27.1701 30.3302 26.8546 30.2217 26.4985 30.0719L26.3184 30.4872ZM27.3203 30.8681L27.1591 31.2909C27.4506 31.3988 27.6739 31.4904 27.8147 31.5937L28.0884 31.2315L28.3625 30.8695C28.1003 30.6772 27.7514 30.5453 27.4814 30.4454L27.3203 30.8681ZM28.0884 31.2315L27.8147 31.5937C27.8836 31.6443 27.9281 31.6947 27.9521 31.7462L28.3687 31.5578L28.7853 31.3695C28.6762 31.1354 28.5064 30.9752 28.3625 30.8695L28.0884 31.2315ZM28.3687 31.5578L27.9521 31.7462C27.9753 31.7961 27.9821 31.8532 27.9658 31.9235L28.4125 32.0244L28.8593 32.1256C28.9155 31.8837 28.9021 31.6201 28.7853 31.3695L28.3687 31.5578ZM28.4125 32.0244L27.9658 31.9235C27.9314 32.071 27.7971 32.2708 27.5176 32.5531L27.8458 32.8684L28.174 33.1837C28.462 32.8927 28.7632 32.5374 28.8593 32.1256L28.4125 32.0244ZM27.8458 32.8684L27.5176 32.5531C27.0791 32.996 26.445 33.325 25.7432 33.6494L25.9379 34.0582L26.1327 34.4669C26.8294 34.145 27.6061 33.7573 28.174 33.1837L27.8458 32.8684ZM25.9379 34.0582L25.7432 33.6494C25.0461 33.9716 24.2796 34.2899 23.6003 34.7115L23.8447 35.0936L24.0891 35.4756C24.7051 35.0933 25.3879 34.8112 26.1327 34.4669L25.9379 34.0582ZM23.8447 35.0936L23.6003 34.7115C22.9194 35.1343 22.3175 35.6653 21.9441 36.4174L22.3559 36.6158L22.7676 36.8142C23.0404 36.2648 23.4926 35.8459 24.0891 35.4756L23.8447 35.0936ZM22.3559 36.6158L21.9441 36.4174C21.5704 37.1705 21.4295 38.1379 21.6562 39.4262L22.1079 39.349L22.5595 39.2719C22.3576 38.1242 22.4976 37.3583 22.7676 36.8142L22.3559 36.6158ZM22.1079 39.349L22.0294 38.9042L21.2773 39.0328L21.3558 39.4777L21.4343 39.9227L22.1864 39.7939L22.1079 39.349ZM21.3558 39.4777L21.8075 39.4006C21.5849 38.136 21.7255 37.2025 22.0819 36.4842L21.67 36.286L21.2582 36.0877C20.7981 37.0151 20.6569 38.1501 20.9042 39.5549L21.3558 39.4777ZM21.67 36.286L22.0819 36.4842C22.4385 35.7657 23.0159 35.2537 23.6826 34.8398L23.4382 34.4577L23.1939 34.0756C22.4431 34.5417 21.7157 35.166 21.2582 36.0877L21.67 36.286ZM23.4382 34.4577L23.6826 34.8398C24.3512 34.4248 25.1031 34.1121 25.8085 33.7861L25.6138 33.3773L25.4191 32.9685C24.7591 33.2735 23.9255 33.6215 23.1939 34.0756L23.4382 34.4577ZM25.6138 33.3773L25.8085 33.7861C26.5094 33.4621 27.1677 33.1236 27.6278 32.6589L27.2997 32.3436L26.9715 32.0283C26.6413 32.3619 26.1268 32.6415 25.4191 32.9685L25.6138 33.3773ZM27.2997 32.3436L27.6278 32.6589C27.9034 32.3805 28.0545 32.1645 28.1058 31.9864L27.665 31.863L27.2241 31.7395C27.2344 31.7036 27.2407 31.7096 27.1995 31.7677C27.1616 31.8211 27.0922 31.9062 26.9715 32.0283L27.2997 32.3436ZM27.665 31.863L27.9876 31.5422C27.9896 31.5442 27.9764 31.531 27.9635 31.5193C27.9486 31.5057 27.9299 31.4898 27.9072 31.4731L27.6327 31.8348L27.3583 32.1965C27.3511 32.1913 27.3453 32.1862 27.3409 32.1821C27.3389 32.1803 27.3375 32.179 27.3375 32.179V32.179L27.3384 32.18C27.3384 32.18 27.3407 32.1821 27.3423 32.1838L27.665 31.863ZM27.6327 31.8348L27.9072 31.4731C27.7456 31.3545 27.4993 31.2552 27.2129 31.1492L27.0516 31.5719L26.8905 31.9947C27.2031 32.1103 27.3194 32.168 27.3583 32.1965L27.6327 31.8348ZM27.0516 31.5719L27.2129 31.1492C26.9212 31.0412 26.5755 30.9219 26.1986 30.7633L26.0185 31.1786L25.8384 31.5939C26.2402 31.7629 26.6208 31.8949 26.8905 31.9947L27.0516 31.5719ZM26.0185 31.1786L26.1986 30.7633C25.4464 30.4468 24.5722 29.9732 23.7748 29.1239L23.4382 29.4305L23.1018 29.7371C24.0158 30.7105 25.0145 31.2471 25.8384 31.5939L26.0185 31.1786ZM23.4382 29.4305L23.7748 29.1239C23.2722 28.5885 22.8001 27.9045 22.4083 27.0166L21.9879 27.1966L21.5675 27.3766C21.9991 28.3546 22.5269 29.125 23.1018 29.7371L23.4382 29.4305ZM21.9879 27.1966L22.0359 26.7475C17.4729 26.2736 13.9168 22.4713 13.9168 17.8505H13.4584H13C13 22.9384 16.9153 27.1238 21.9398 27.6457L21.9879 27.1966ZM13.4584 17.8505H13.9168C13.9169 12.9091 17.9833 8.90324 22.9995 8.90312V8.45156V8C17.477 8.00013 13.0001 12.4103 13 17.8505H13.4584Z" fill="black"/>
</svg>
