<svg width="204" height="41" viewBox="0 0 204 41" fill="none" xmlns="http://www.w3.org/2000/svg">
<path d="M38.2905 17.9442L33.9343 11.2101L36.552 9.63151L41.9672 17.9442H38.2905ZM29.1985 17.9442V3.95652H32.4157V17.9442H29.1985ZM31.4765 12.3092V9.61153H36.3522V12.3092H31.4765ZM36.8518 11.31L33.8744 10.9504L38.4104 3.95652H41.8274L36.8518 11.31ZM50.1193 18.184C49.0136 18.184 47.9878 18.0041 47.042 17.6444C46.1095 17.2848 45.2969 16.7785 44.6041 16.1258C43.9247 15.473 43.3919 14.707 43.0055 13.8278C42.6325 12.9486 42.446 11.9894 42.446 10.9504C42.446 9.91127 42.6325 8.95211 43.0055 8.07289C43.3919 7.19366 43.9314 6.42767 44.6241 5.77491C45.3168 5.12216 46.1295 4.61594 47.062 4.25625C47.9945 3.89657 49.0069 3.71673 50.0993 3.71673C51.205 3.71673 52.2174 3.89657 53.1366 4.25625C54.0691 4.61594 54.8751 5.12216 55.5545 5.77491C56.2472 6.42767 56.7867 7.19366 57.1731 8.07289C57.5594 8.93879 57.7525 9.89795 57.7525 10.9504C57.7525 11.9894 57.5594 12.9552 57.1731 13.8478C56.7867 14.727 56.2472 15.493 55.5545 16.1458C54.8751 16.7852 54.0691 17.2848 53.1366 17.6444C52.2174 18.0041 51.2116 18.184 50.1193 18.184ZM50.0993 15.4264C50.7254 15.4264 51.2982 15.3198 51.8178 15.1067C52.3506 14.8935 52.8169 14.5871 53.2165 14.1875C53.6162 13.7878 53.9226 13.3149 54.1357 12.7687C54.3622 12.2226 54.4754 11.6164 54.4754 10.9504C54.4754 10.2843 54.3622 9.67814 54.1357 9.13195C53.9226 8.58577 53.6162 8.11285 53.2165 7.71321C52.8302 7.31356 52.3706 7.00716 51.8378 6.79402C51.3049 6.58087 50.7254 6.4743 50.0993 6.4743C49.4732 6.4743 48.8937 6.58087 48.3608 6.79402C47.8413 7.00716 47.3817 7.31356 46.982 7.71321C46.5824 8.11285 46.2693 8.58577 46.0429 9.13195C45.8297 9.67814 45.7231 10.2843 45.7231 10.9504C45.7231 11.6031 45.8297 12.2092 46.0429 12.7687C46.2693 13.3149 46.5757 13.7878 46.9621 14.1875C47.3617 14.5871 47.828 14.8935 48.3608 15.1067C48.8937 15.3198 49.4732 15.4264 50.0993 15.4264ZM60.2463 17.9442V3.95652H66.3009C67.5532 3.95652 68.6322 4.163 69.5381 4.57597C70.444 4.97562 71.1433 5.55511 71.6362 6.31444C72.1291 7.07377 72.3756 7.97964 72.3756 9.03204C72.3756 10.0711 72.1291 10.9703 71.6362 11.7297C71.1433 12.489 70.444 13.0751 69.5381 13.4881C68.6322 13.8878 67.5532 14.0876 66.3009 14.0876H62.0447L63.4834 12.6289V17.9442H60.2463ZM63.4834 12.9886L62.0447 11.4499H66.1211C67.1202 11.4499 67.8662 11.2368 68.3591 10.8105C68.852 10.3842 69.0985 9.79137 69.0985 9.03204C69.0985 8.25939 68.852 7.65992 68.3591 7.23363C67.8662 6.80734 67.1202 6.59419 66.1211 6.59419H62.0447L63.4834 5.05555V12.9886ZM81.4003 18.184C80.2946 18.184 79.2688 18.0041 78.323 17.6444C77.3905 17.2848 76.5779 16.7785 75.8851 16.1258C75.2057 15.473 74.6729 14.707 74.2866 13.8278C73.9135 12.9486 73.727 11.9894 73.727 10.9504C73.727 9.91127 73.9135 8.95211 74.2866 8.07289C74.6729 7.19366 75.2124 6.42767 75.9051 5.77491C76.5978 5.12216 77.4105 4.61594 78.343 4.25625C79.2755 3.89657 80.2879 3.71673 81.3803 3.71673C82.486 3.71673 83.4984 3.89657 84.4176 4.25625C85.3501 4.61594 86.1561 5.12216 86.8355 5.77491C87.5282 6.42767 88.0677 7.19366 88.4541 8.07289C88.8404 8.93879 89.0335 9.89795 89.0335 10.9504C89.0335 11.9894 88.8404 12.9552 88.4541 13.8478C88.0677 14.727 87.5282 15.493 86.8355 16.1458C86.1561 16.7852 85.3501 17.2848 84.4176 17.6444C83.4984 18.0041 82.4926 18.184 81.4003 18.184ZM81.3803 15.4264C82.0064 15.4264 82.5792 15.3198 83.0988 15.1067C83.6316 14.8935 84.0979 14.5871 84.4975 14.1875C84.8972 13.7878 85.2036 13.3149 85.4167 12.7687C85.6432 12.2226 85.7564 11.6164 85.7564 10.9504C85.7564 10.2843 85.6432 9.67814 85.4167 9.13195C85.2036 8.58577 84.8972 8.11285 84.4975 7.71321C84.1112 7.31356 83.6516 7.00716 83.1188 6.79402C82.5859 6.58087 82.0064 6.4743 81.3803 6.4743C80.7542 6.4743 80.1747 6.58087 79.6418 6.79402C79.1223 7.00716 78.6627 7.31356 78.263 7.71321C77.8634 8.11285 77.5503 8.58577 77.3239 9.13195C77.1107 9.67814 77.0042 10.2843 77.0042 10.9504C77.0042 11.6031 77.1107 12.2092 77.3239 12.7687C77.5503 13.3149 77.8567 13.7878 78.2431 14.1875C78.6427 14.5871 79.109 14.8935 79.6418 15.1067C80.1747 15.3198 80.7542 15.4264 81.3803 15.4264ZM91.2769 18.164C91.0371 18.164 90.784 18.144 90.5175 18.104C90.2644 18.0641 89.9847 18.0108 89.6783 17.9442L89.8781 15.2066C90.0646 15.2599 90.2578 15.2865 90.4576 15.2865C91.0038 15.2865 91.4301 15.0667 91.7365 14.6271C92.0429 14.1742 92.2627 13.5281 92.3959 12.6888C92.5291 11.8496 92.6157 10.8305 92.6557 9.63151L92.8555 3.95652H103.606V17.9442H100.409V5.85484L101.148 6.59419H94.9736L95.633 5.81488L95.5131 9.51162C95.4732 10.8837 95.3799 12.1027 95.2334 13.1684C95.0869 14.2341 94.8604 15.14 94.554 15.886C94.2476 16.632 93.828 17.1982 93.2951 17.5845C92.7622 17.9708 92.0895 18.164 91.2769 18.164ZM107.099 17.9442V3.95652H117.67V6.55423H110.317V15.3465H117.93V17.9442H107.099ZM110.077 12.1093V9.59155H116.811V12.1093H110.077ZM120.545 17.9442V3.95652H127.059C128.684 3.95652 129.95 4.26957 130.856 4.89569C131.761 5.5218 132.214 6.41435 132.214 7.57333C132.214 8.71898 131.788 9.61153 130.936 10.251C130.083 10.8771 128.951 11.1901 127.538 11.1901L127.918 10.3509C129.49 10.3509 130.709 10.6639 131.575 11.2901C132.441 11.9162 132.874 12.822 132.874 14.0077C132.874 15.2332 132.408 16.1991 131.475 16.9051C130.556 17.5978 129.21 17.9442 127.439 17.9442H120.545ZM123.762 15.5463H127.319C128.065 15.5463 128.631 15.3998 129.017 15.1067C129.404 14.8136 129.597 14.3607 129.597 13.7479C129.597 13.1617 129.404 12.7288 129.017 12.449C128.631 12.156 128.065 12.0094 127.319 12.0094H123.762V15.5463ZM123.762 9.75141H126.779C127.485 9.75141 128.018 9.61153 128.378 9.33178C128.737 9.0387 128.917 8.61241 128.917 8.05291C128.917 7.4934 128.737 7.07377 128.378 6.79402C128.018 6.50094 127.485 6.3544 126.779 6.3544H123.762V9.75141ZM142.048 18.184C140.969 18.184 139.963 18.0108 139.031 17.6644C138.112 17.3047 137.312 16.7985 136.633 16.1458C135.953 15.493 135.421 14.727 135.034 13.8478C134.661 12.9686 134.475 12.0028 134.475 10.9504C134.475 9.89795 134.661 8.93213 135.034 8.05291C135.421 7.17368 135.953 6.40769 136.633 5.75493C137.326 5.10217 138.131 4.60261 139.051 4.25625C139.97 3.89657 140.976 3.71673 142.068 3.71673C143.28 3.71673 144.373 3.92988 145.345 4.35617C146.331 4.76913 147.157 5.38193 147.823 6.19455L145.745 8.11285C145.265 7.56667 144.732 7.16036 144.146 6.89393C143.56 6.61417 142.921 6.4743 142.228 6.4743C141.575 6.4743 140.976 6.58087 140.429 6.79402C139.883 7.00716 139.41 7.31356 139.011 7.71321C138.611 8.11285 138.298 8.58577 138.072 9.13195C137.858 9.67814 137.752 10.2843 137.752 10.9504C137.752 11.6164 137.858 12.2226 138.072 12.7687C138.298 13.3149 138.611 13.7878 139.011 14.1875C139.41 14.5871 139.883 14.8935 140.429 15.1067C140.976 15.3198 141.575 15.4264 142.228 15.4264C142.921 15.4264 143.56 15.2932 144.146 15.0268C144.732 14.747 145.265 14.3274 145.745 13.7679L147.823 15.6862C147.157 16.4988 146.331 17.1182 145.345 17.5445C144.373 17.9708 143.274 18.184 142.048 18.184ZM158.985 17.9442L154.629 11.2101L157.246 9.63151L162.662 17.9442H158.985ZM149.893 17.9442V3.95652H153.11V17.9442H149.893ZM152.171 12.3092V9.61153H157.047V12.3092H152.171ZM157.546 11.31L154.569 10.9504L159.105 3.95652H162.522L157.546 11.31ZM164.237 17.9442V3.95652H167.454V13.0685L174.128 3.95652H177.165V17.9442H173.968V8.8522L167.294 17.9442H164.237ZM180.648 17.9442V3.95652H183.865V13.0685L190.539 3.95652H193.577V17.9442H190.379V8.8522L183.705 17.9442H180.648ZM187.102 3.05731C185.77 3.05731 184.791 2.79088 184.165 2.25802C183.552 1.72515 183.239 0.972483 183.226 6.67108e-06H185.444C185.457 0.479584 185.597 0.845928 185.863 1.09904C186.143 1.33883 186.556 1.45872 187.102 1.45872C187.635 1.45872 188.041 1.33883 188.321 1.09904C188.601 0.845928 188.747 0.479584 188.761 6.67108e-06H190.979C190.965 0.972483 190.646 1.72515 190.02 2.25802C189.394 2.79088 188.421 3.05731 187.102 3.05731ZM29.2385 37.9442V23.9565H32.4556V36.0459L31.7163 35.3065H37.5911L36.8717 36.0459V23.9565H40.0889V36.0459L39.3296 35.3065H45.2444L44.485 36.0459V23.9565H47.7022V37.9442H29.2385ZM49.5936 37.9442L55.8281 23.9565H59.0253L65.2798 37.9442H61.8828L56.7673 25.5951H58.0462L52.9107 37.9442H49.5936ZM52.7109 34.9468L53.5701 32.489H60.7638L61.643 34.9468H52.7109ZM67.1347 37.9442V23.9565H73.1894C74.4416 23.9565 75.5207 24.163 76.4265 24.576C77.3324 24.9756 78.0318 25.5551 78.5247 26.3144C79.0176 27.0738 79.264 27.9796 79.264 29.032C79.264 30.0711 79.0176 30.9703 78.5247 31.7297C78.0318 32.489 77.3324 33.0751 76.4265 33.4881C75.5207 33.8878 74.4416 34.0876 73.1894 34.0876H68.9331L70.3719 32.6289V37.9442H67.1347ZM70.3719 32.9886L68.9331 31.4499H73.0096C74.0087 31.4499 74.7547 31.2368 75.2476 30.8105C75.7405 30.3842 75.9869 29.7914 75.9869 29.032C75.9869 28.2594 75.7405 27.6599 75.2476 27.2336C74.7547 26.8073 74.0087 26.5942 73.0096 26.5942H68.9331L70.3719 25.0555V32.9886Z" fill="black"/>
<path d="M10.9072 4.12766C16.655 4.12766 21.3153 8.7871 21.3154 14.5349C21.3154 20.2828 16.6551 24.9431 10.9072 24.9431C10.8537 24.9431 10.8004 24.939 10.7471 24.9382C11.122 25.7041 11.5503 26.3086 11.9971 26.7917C12.8246 27.6863 13.7331 28.1877 14.5273 28.5271C14.9294 28.6988 15.2928 28.826 15.6201 28.9489C15.9264 29.064 16.2383 29.1877 16.458 29.3513C16.5741 29.4378 16.6911 29.5545 16.7637 29.7126C16.84 29.879 16.8511 30.0564 16.8115 30.2292C16.7403 30.5389 16.5029 30.8464 16.1934 31.1638C15.6445 31.7265 14.875 32.1233 14.1123 32.4812C13.3259 32.8501 12.5355 33.1826 11.8291 33.6277C11.1324 34.0667 10.5575 34.5926 10.2051 35.3132C9.85407 36.0313 9.70084 36.991 9.93457 38.3396L9.11426 38.4821C8.85804 37.0042 9.0117 35.8591 9.45703 34.948C9.90102 34.0399 10.6126 33.4108 11.3857 32.9236C12.1493 32.4424 13.0141 32.0766 13.7588 31.7273C14.527 31.3669 15.1666 31.0247 15.5977 30.5827C15.8879 30.285 15.976 30.1211 15.9961 30.0505C15.9887 30.0432 15.978 30.032 15.9609 30.0193C15.8516 29.9378 15.6538 29.851 15.3271 29.7282C15.021 29.6132 14.6249 29.4741 14.2002 29.2927C13.3407 28.9254 12.3191 28.3662 11.3857 27.3571C10.7982 26.7218 10.2528 25.9166 9.80371 24.8835C4.57478 24.3322 0.5 19.9099 0.5 14.5349C0.500142 8.78719 5.15954 4.1278 10.9072 4.12766Z" fill="#FED258"/>
<path d="M10.9072 4.12766V3.62766H10.9072L10.9072 4.12766ZM21.3154 14.5349H21.8154V14.5349L21.3154 14.5349ZM10.9072 24.9431L10.9072 25.4431H10.9072V24.9431ZM10.7471 24.9382L10.7546 24.4383L9.93961 24.4259L10.298 25.158L10.7471 24.9382ZM11.9971 26.7917L11.63 27.1312L11.63 27.1312L11.9971 26.7917ZM14.5273 28.5271L14.3309 28.9869L14.3309 28.9869L14.5273 28.5271ZM15.6201 28.9489L15.7959 28.4809L15.7959 28.4809L15.6201 28.9489ZM16.458 29.3513L16.7569 28.9504L16.7567 28.9503L16.458 29.3513ZM16.7637 29.7126L17.2181 29.5041L17.2181 29.504L16.7637 29.7126ZM16.8115 30.2292L17.2988 30.3413L17.2989 30.3409L16.8115 30.2292ZM16.1934 31.1638L16.5513 31.5129L16.5513 31.5129L16.1934 31.1638ZM14.1123 32.4812L14.3247 32.9338L14.3247 32.9338L14.1123 32.4812ZM11.8291 33.6277L11.5625 33.2046L11.5625 33.2047L11.8291 33.6277ZM10.2051 35.3132L9.75592 35.0935L9.75587 35.0936L10.2051 35.3132ZM9.93457 38.3396L10.0202 38.8322L10.5126 38.7466L10.4272 38.2542L9.93457 38.3396ZM9.11426 38.4821L8.62161 38.5676L8.70705 39.0604L9.19988 38.9748L9.11426 38.4821ZM9.45703 34.948L9.00784 34.7284L9.00782 34.7284L9.45703 34.948ZM11.3857 32.9236L11.1192 32.5005L11.1192 32.5005L11.3857 32.9236ZM13.7588 31.7273L13.9711 32.1799L13.9712 32.1799L13.7588 31.7273ZM15.5977 30.5827L15.9556 30.9318L15.9556 30.9318L15.5977 30.5827ZM15.9961 30.0505L16.477 30.1872L16.5578 29.9032L16.348 29.6953L15.9961 30.0505ZM15.9609 30.0193L16.2603 29.6188L16.2597 29.6183L15.9609 30.0193ZM15.3271 29.7282L15.503 29.2602L15.503 29.2602L15.3271 29.7282ZM14.2002 29.2927L14.0037 29.7525L14.0038 29.7525L14.2002 29.2927ZM11.3857 27.3571L11.0187 27.6966L11.0187 27.6967L11.3857 27.3571ZM9.80371 24.8835L10.2623 24.6842L10.146 24.4168L9.85613 24.3863L9.80371 24.8835ZM0.5 14.5349L0 14.5349V14.5349H0.5ZM10.9072 4.12766V4.62766C16.3789 4.62766 20.8153 9.0633 20.8154 14.5349L21.3154 14.5349L21.8154 14.5349C21.8153 8.51091 16.9311 3.62766 10.9072 3.62766V4.12766ZM21.3154 14.5349H20.8154C20.8154 20.0066 16.379 24.4431 10.9072 24.4431V24.9431V25.4431C16.9313 25.4431 21.8154 20.5589 21.8154 14.5349H21.3154ZM10.9072 24.9431L10.9072 24.4431C10.892 24.4431 10.8746 24.4425 10.848 24.4414C10.8245 24.4404 10.7896 24.4388 10.7546 24.4383L10.7471 24.9382L10.7395 25.4381C10.7578 25.4384 10.7763 25.4393 10.8061 25.4405C10.8329 25.4416 10.8689 25.4431 10.9072 25.4431L10.9072 24.9431ZM10.7471 24.9382L10.298 25.158C10.6938 25.9665 11.1494 26.6116 11.63 27.1312L11.9971 26.7917L12.3641 26.4522C11.9511 26.0057 11.5502 25.4417 11.1962 24.7184L10.7471 24.9382ZM11.9971 26.7917L11.63 27.1312C12.5211 28.0945 13.4974 28.6307 14.3309 28.9869L14.5273 28.5271L14.7238 28.0673C13.9687 27.7446 13.1281 27.2781 12.3641 26.4522L11.9971 26.7917ZM14.5273 28.5271L14.3309 28.9869C14.7465 29.1644 15.1293 29.2987 15.4443 29.417L15.6201 28.9489L15.7959 28.4809C15.4563 28.3533 15.1122 28.2332 14.7238 28.0673L14.5273 28.5271ZM15.6201 28.9489L15.4443 29.417C15.7623 29.5365 16.0058 29.638 16.1594 29.7523L16.458 29.3513L16.7567 28.9503C16.4708 28.7374 16.0904 28.5915 15.7959 28.4809L15.6201 28.9489ZM16.458 29.3513L16.1591 29.7521C16.2343 29.8082 16.2831 29.8642 16.3093 29.9212L16.7637 29.7126L17.2181 29.504C17.0991 29.2448 16.9139 29.0675 16.7569 28.9504L16.458 29.3513ZM16.7637 29.7126L16.3092 29.9211C16.3345 29.9763 16.342 30.0397 16.3242 30.1175L16.8115 30.2292L17.2989 30.3409C17.3603 30.073 17.3455 29.7816 17.2181 29.5041L16.7637 29.7126ZM16.8115 30.2292L16.3242 30.1172C16.2867 30.2805 16.1402 30.5021 15.8354 30.8147L16.1934 31.1638L16.5513 31.5129C16.8655 31.1907 17.194 30.7973 17.2988 30.3413L16.8115 30.2292ZM16.1934 31.1638L15.8354 30.8147C15.3571 31.3051 14.6654 31.6694 13.8999 32.0285L14.1123 32.4812L14.3247 32.9338C15.0847 32.5773 15.9319 32.148 16.5513 31.5129L16.1934 31.1638ZM14.1123 32.4812L13.8999 32.0285C13.1395 32.3853 12.3034 32.7378 11.5625 33.2046L11.8291 33.6277L12.0957 34.0507C12.7676 33.6273 13.5123 33.315 14.3247 32.9338L14.1123 32.4812ZM11.8291 33.6277L11.5625 33.2047C10.8198 33.6728 10.1632 34.2607 9.75592 35.0935L10.2051 35.3132L10.6542 35.5329C10.9518 34.9245 11.445 34.4607 12.0957 34.0507L11.8291 33.6277ZM10.2051 35.3132L9.75587 35.0936C9.3483 35.9275 9.1947 36.9986 9.44192 38.425L9.93457 38.3396L10.4272 38.2542C10.207 36.9834 10.3598 36.1352 10.6543 35.5328L10.2051 35.3132ZM9.93457 38.3396L9.84895 37.847L9.02864 37.9895L9.11426 38.4821L9.19988 38.9748L10.0202 38.8322L9.93457 38.3396ZM9.11426 38.4821L9.60691 38.3967C9.36415 36.9964 9.51753 35.9628 9.90624 35.1675L9.45703 34.948L9.00782 34.7284C8.50587 35.7553 8.35193 37.012 8.62161 38.5676L9.11426 38.4821ZM9.45703 34.948L9.90622 35.1676C10.2952 34.372 10.925 33.8049 11.6523 33.3466L11.3857 32.9236L11.1192 32.5005C10.3002 33.0166 9.50683 33.7078 9.00784 34.7284L9.45703 34.948ZM11.3857 32.9236L11.6523 33.3466C12.3815 32.8871 13.2017 32.5409 13.9711 32.1799L13.7588 31.7273L13.5464 31.2746C12.8265 31.6123 11.9172 31.9977 11.1192 32.5005L11.3857 32.9236ZM13.7588 31.7273L13.9712 32.1799C14.7357 31.8212 15.4537 31.4464 15.9556 30.9318L15.5977 30.5827L15.2397 30.2336C14.8795 30.6029 14.3183 30.9125 13.5464 31.2746L13.7588 31.7273ZM15.5977 30.5827L15.9556 30.9318C16.2562 30.6235 16.421 30.3844 16.477 30.1872L15.9961 30.0505L15.5152 29.9138C15.5265 29.874 15.5333 29.8807 15.4884 29.945C15.4471 30.0041 15.3714 30.0985 15.2397 30.2337L15.5977 30.5827ZM15.9961 30.0505L16.348 29.6953C16.3502 29.6975 16.3358 29.6829 16.3217 29.6699C16.3055 29.6549 16.2851 29.6373 16.2603 29.6188L15.9609 30.0193L15.6616 30.4198C15.6538 30.414 15.6474 30.4084 15.6426 30.4039C15.6404 30.4019 15.639 30.4005 15.6389 30.4004C15.6388 30.4004 15.6389 30.4004 15.6391 30.4006C15.6393 30.4008 15.6395 30.4011 15.6399 30.4015C15.6405 30.402 15.6424 30.4039 15.6442 30.4057L15.9961 30.0505ZM15.9609 30.0193L16.2597 29.6183C16.0835 29.487 15.8154 29.3775 15.503 29.2602L15.3271 29.7282L15.1513 30.1963C15.4923 30.3244 15.6198 30.3886 15.6622 30.4202L15.9609 30.0193ZM15.3271 29.7282L15.503 29.2602C15.1848 29.1406 14.8077 29.0085 14.3966 28.8329L14.2002 29.2927L14.0038 29.7525C14.4421 29.9397 14.8572 30.0858 15.1513 30.1963L15.3271 29.7282ZM14.2002 29.2927L14.3967 28.8329C13.5763 28.4824 12.6226 27.958 11.7528 27.0176L11.3857 27.3571L11.0187 27.6967C12.0157 28.7745 13.1051 29.3685 14.0037 29.7525L14.2002 29.2927ZM11.3857 27.3571L11.7528 27.0177C11.2046 26.4249 10.6897 25.6674 10.2623 24.6842L9.80371 24.8835L9.34516 25.0828C9.81591 26.1658 10.3917 27.0188 11.0187 27.6966L11.3857 27.3571ZM9.80371 24.8835L9.85613 24.3863C4.87888 23.8615 1 19.6513 1 14.5349H0.5H0C0 20.1685 4.27069 24.8029 9.75129 25.3808L9.80371 24.8835ZM0.5 14.5349L1 14.5349C1.00013 9.06334 5.43568 4.62779 10.9072 4.62766L10.9072 4.12766L10.9072 3.62766C4.88339 3.6278 0.000148535 8.51105 0 14.5349L0.5 14.5349Z" fill="black"/>
</svg>
