<svg width="32" height="32" viewBox="0 0 32 32" fill="none" xmlns="http://www.w3.org/2000/svg">
<g clip-path="url(#clip0_162_222)">
<path d="M28.56 19.6267C30.1697 18.5368 31.3006 16.8715 31.72 14.9733C32.6267 11.3867 31.28 8.04 28.64 7.37333C26 6.70667 23.2267 9 22.32 12.5867C22.0938 13.4564 22.0039 14.356 22.0533 15.2533C21.1837 15.0203 20.287 14.9037 19.3867 14.9067C18.5186 14.9004 17.6534 15.008 16.8133 15.2267C16.7959 14.5436 16.7065 13.8643 16.5467 13.2C16.206 11.8105 15.5178 10.5305 14.5467 9.48C15.1213 8.95268 15.5803 8.31191 15.8947 7.59818C16.2091 6.88444 16.3721 6.11325 16.3733 5.33333C16.4186 4.67641 16.3337 4.01702 16.1234 3.39302C15.9131 2.76901 15.5817 2.19269 15.148 1.69713C14.7144 1.20157 14.1872 0.796547 13.5966 0.505305C13.0061 0.214063 12.3638 0.0423412 11.7067 0C10.5112 0.0625677 9.38012 0.561196 8.52751 1.40152C7.6749 2.24184 7.15991 3.36556 7.08 4.56C6.51491 4.38202 5.92579 4.29207 5.33333 4.29333C4.00908 4.21265 2.70642 4.65738 1.70797 5.53102C0.709526 6.40466 0.0958192 7.63676 0 8.96C0.0958192 10.2832 0.709526 11.5153 1.70797 12.389C2.70642 13.2626 4.00908 13.7073 5.33333 13.6267C5.8413 13.6263 6.3473 13.5636 6.84 13.44C6.84249 14.1829 6.94109 14.9224 7.13333 15.64C7.50978 17.3395 8.44951 18.8618 9.8 19.96C8.45503 21.063 7.51658 22.5833 7.13333 24.28C6.21333 27.88 7.56 31.2133 10.2 31.88C10.4956 31.96 10.8005 32.0004 11.1067 32C12.2719 31.9569 13.3794 31.4816 14.2133 30.6667C15.358 29.5864 16.164 28.1967 16.5333 26.6667C16.7512 25.7954 16.841 24.8971 16.8 24C17.6418 24.2084 18.5062 24.3114 19.3733 24.3067C20.2736 24.3096 21.1704 24.193 22.04 23.96C21.9899 24.8573 22.0798 25.757 22.3067 26.6267C23.1067 29.8 25.3733 31.96 27.7067 31.96C28.0172 31.9596 28.3264 31.9192 28.6267 31.84C31.2933 31.1733 32.6267 27.84 31.7067 24.24C31.2812 22.3586 30.1563 20.7094 28.56 19.6267ZM5.33333 10.96C3.88 10.96 2.66667 10.0533 2.66667 8.96C2.66667 7.86667 3.88 6.96 5.33333 6.96C6.78667 6.96 8 7.88 8 8.96C8 10.04 6.77333 10.96 5.33333 10.96ZM11.7067 2.66667C12.7867 2.66667 13.7067 3.89333 13.7067 5.33333C13.7067 6.77333 12.7867 8 11.7067 8C10.6267 8 9.70667 6.78667 9.70667 5.33333C9.70667 3.88 10.6667 2.66667 11.7067 2.66667ZM13.9467 26.0533C13.56 27.5467 12.24 29.68 10.8533 29.3333C9.85333 29.08 9.16 27.1733 9.70667 24.9867C10.12 23.3867 11.44 21.36 12.8 21.7067C14.16 22.0533 14.32 24.5333 13.9467 26.0133V26.0533ZM12.8 18.2667C11.8 18.52 10.28 17.2267 9.70667 14.9867C9.13333 12.7467 9.85333 10.88 10.8533 10.6667C12.1867 10.32 13.52 12.4667 13.9467 13.9467C14.3733 15.4267 14.1733 17.9067 12.8 18.2667ZM19.3733 21.6267C16.7067 21.6267 15.04 20.44 15.04 19.6267C15.04 18.8133 16.72 17.6267 19.3733 17.6267C22.0267 17.6267 23.7067 18.8133 23.7067 19.6267C23.7067 20.44 22.0133 21.6267 19.3733 21.6267ZM24.9067 13.24C25.3333 11.7333 26.5867 9.61333 28 9.96C29 10.2133 29.6933 12.1333 29.1467 14.32C28.6 16.5067 27.0533 17.84 26.0533 17.6C24.68 17.2533 24.5333 14.6667 24.9067 13.24ZM28 29.3333C27 29.6 25.48 28.3067 24.92 26.0533C24.5333 24.5733 24.6933 22.0533 26.0533 21.7067C27.4133 21.36 28.72 23.3333 29.1467 24.9867C29.68 27.1333 28.9867 29.04 28 29.3333Z" fill="#D4A93A"/>
</g>
<defs>
<clipPath id="clip0_162_222">
<rect width="32" height="32" fill="white"/>
</clipPath>
</defs>
</svg>
