<svg width="32" height="32" viewBox="0 0 32 32" fill="none" xmlns="http://www.w3.org/2000/svg">
<g clip-path="url(#clip0_162_227)">
<path d="M11.5469 29.2C11.5469 29.7304 11.7576 30.2391 12.1327 30.6142C12.5077 30.9892 13.0164 31.2 13.5469 31.2C14.0773 31.2 14.586 30.9892 14.9611 30.6142C15.3362 30.2391 15.5469 29.7304 15.5469 29.2C15.5469 28.6695 15.3362 28.1608 14.9611 27.7857C14.586 27.4107 14.0773 27.2 13.5469 27.2C13.0164 27.2 12.5077 27.4107 12.1327 27.7857C11.7576 28.1608 11.5469 28.6695 11.5469 29.2Z" fill="#A8417F"/>
<path d="M29.4668 17.8133C29.312 17.261 28.9832 16.7732 28.5293 16.4226C28.0753 16.0719 27.5203 15.8769 26.9468 15.8667H23.6268C23.5437 15.864 23.4643 15.8316 23.4031 15.7753C23.3419 15.719 23.303 15.6426 23.2935 15.56C23.1933 14.9926 22.8965 14.4785 22.4552 14.1079C22.014 13.7374 21.4564 13.5339 20.8801 13.5333H17.6801C17.6191 13.5359 17.5599 13.5544 17.5084 13.5872C17.4569 13.62 17.4149 13.6658 17.3868 13.72C16.5522 15.3815 15.2725 16.7787 13.6905 17.7557C12.1085 18.7327 10.2862 19.2512 8.4268 19.2533H7.5868C7.48971 19.2521 7.3953 19.2852 7.32014 19.3467C7.28569 19.3763 7.25826 19.4132 7.23981 19.4547C7.22136 19.4962 7.21237 19.5413 7.21347 19.5867V26.5333C7.21347 27.1522 7.4593 27.7457 7.89689 28.1832C8.33447 28.6208 8.92796 28.8667 9.5468 28.8667H9.96014C10.0381 28.8682 10.1142 28.8424 10.1751 28.7937C10.236 28.745 10.2779 28.6764 10.2935 28.6C10.4242 27.83 10.8233 27.1312 11.42 26.6273C12.0167 26.1233 12.7725 25.8469 13.5535 25.8469C14.3345 25.8469 15.0903 26.1233 15.687 26.6273C16.2837 27.1312 16.6827 27.83 16.8135 28.6C16.8259 28.6766 16.8646 28.7465 16.923 28.7976C16.9814 28.8488 17.0559 28.8779 17.1335 28.88H22.6668C22.746 28.8784 22.8223 28.8498 22.8829 28.7988C22.9435 28.7479 22.9849 28.6777 23.0001 28.6C23.1309 27.83 23.53 27.1312 24.1266 26.6273C24.7233 26.1233 25.4791 25.8469 26.2601 25.8469C27.0411 25.8469 27.7969 26.1233 28.3936 26.6273C28.9903 27.1312 29.3894 27.83 29.5201 28.6C29.5326 28.6611 29.5661 28.716 29.6148 28.7549C29.6636 28.7939 29.7244 28.8146 29.7868 28.8133C30.1641 28.7937 30.5307 28.6812 30.854 28.4858C31.1773 28.2905 31.4474 28.0182 31.6401 27.6933C31.8417 27.3655 31.9698 26.9979 32.0159 26.6159C32.0619 26.2338 32.0247 25.8463 31.9068 25.48L29.4668 17.8133ZM26.6668 18.52C26.7372 18.5191 26.8062 18.5406 26.8637 18.5813C26.9212 18.622 26.9643 18.6799 26.9868 18.7467C27.0801 19.0133 27.2668 19.5867 27.6401 20.7733C27.6625 20.819 27.6741 20.8691 27.6741 20.92C27.6741 20.9708 27.6625 21.021 27.6401 21.0667C27.6117 21.1107 27.5719 21.1463 27.525 21.1697C27.4781 21.1932 27.4258 21.2036 27.3735 21.2H23.5601C23.4717 21.2 23.3869 21.1649 23.3244 21.1024C23.2619 21.0398 23.2268 20.9551 23.2268 20.8667V18.8667C23.2267 18.7805 23.26 18.6977 23.3197 18.6355C23.3793 18.5734 23.4607 18.5368 23.5468 18.5333L26.6668 18.52Z" fill="#A8417F"/>
<path d="M24.2134 29.2C24.2134 29.7304 24.4241 30.2391 24.7992 30.6142C25.1742 30.9892 25.6829 31.2 26.2134 31.2C26.7438 31.2 27.2525 30.9892 27.6276 30.6142C28.0027 30.2391 28.2134 29.7304 28.2134 29.2C28.2134 28.6695 28.0027 28.1608 27.6276 27.7857C27.2525 27.4107 26.7438 27.2 26.2134 27.2C25.6829 27.2 25.1742 27.4107 24.7992 27.7857C24.4241 28.1608 24.2134 28.6695 24.2134 29.2Z" fill="#A8417F"/>
<path d="M8.42667 17.6133C10.0901 17.6106 11.7154 17.115 13.0972 16.1889C14.479 15.2628 15.5553 13.9479 16.1901 12.4104C16.8248 10.8728 16.9895 9.18158 16.6634 7.55043C16.3372 5.91928 15.5349 4.42142 14.3577 3.24612C13.1806 2.07083 11.6815 1.27086 10.0498 0.947312C8.41813 0.623761 6.72718 0.79115 5.19062 1.42832C3.65406 2.0655 2.34086 3.14386 1.41698 4.52714C0.493101 5.91041 2.0889e-06 7.53652 0 9.19995C-1.38885e-06 10.3059 0.218057 11.4011 0.6417 12.4227C1.06534 13.4443 1.68626 14.3724 2.46892 15.1538C3.25158 15.9352 4.18064 16.5547 5.20293 16.9767C6.22522 17.3987 7.32069 17.615 8.42667 17.6133ZM14.16 9.19995C14.1626 10.3377 13.8275 11.4506 13.1971 12.3976C12.5666 13.3447 11.6693 14.0833 10.6187 14.5199C9.56804 14.9565 8.41148 15.0715 7.2955 14.8502C6.17951 14.6288 5.15433 14.0813 4.34984 13.2768C3.54535 12.4723 2.99777 11.4471 2.77645 10.3311C2.55514 9.21513 2.67007 8.05857 3.10667 7.00796C3.54328 5.95735 4.28191 5.05998 5.22898 4.42954C6.17606 3.79911 7.28895 3.46398 8.42667 3.46661C9.94616 3.47014 11.4024 4.07531 12.4769 5.14976C13.5513 6.2242 14.1565 7.68046 14.16 9.19995Z" fill="#A8417F"/>
<path d="M8.42659 10.5333H10.8799C11.2335 10.5333 11.5727 10.3928 11.8227 10.1427C12.0728 9.89269 12.2133 9.55355 12.2133 9.19993C12.2133 8.84631 12.0728 8.50717 11.8227 8.25712C11.5727 8.00707 11.2335 7.86659 10.8799 7.86659H10.0933C10.0049 7.86659 9.92007 7.83147 9.85756 7.76896C9.79505 7.70645 9.75993 7.62167 9.75993 7.53326V6.13326C9.75993 5.77964 9.61945 5.4405 9.3694 5.19045C9.11936 4.9404 8.78022 4.79993 8.42659 4.79993C8.07297 4.79993 7.73383 4.9404 7.48379 5.19045C7.23374 5.4405 7.09326 5.77964 7.09326 6.13326V9.19993C7.09326 9.55355 7.23374 9.89269 7.48379 10.1427C7.73383 10.3928 8.07297 10.5333 8.42659 10.5333Z" fill="#A8417F"/>
</g>
<defs>
<clipPath id="clip0_162_227">
<rect width="32" height="32" fill="white"/>
</clipPath>
</defs>
</svg>
