<svg width="32" height="31" viewBox="0 0 32 31" fill="none" xmlns="http://www.w3.org/2000/svg">
<path d="M11.5469 28.4133C11.5469 28.9438 11.7576 29.4525 12.1327 29.8275C12.5077 30.2026 13.0164 30.4133 13.5469 30.4133C14.0773 30.4133 14.586 30.2026 14.9611 29.8275C15.3362 29.4525 15.5469 28.9438 15.5469 28.4133C15.5469 27.8829 15.3362 27.3742 14.9611 26.9991C14.586 26.624 14.0773 26.4133 13.5469 26.4133C13.0164 26.4133 12.5077 26.624 12.1327 26.9991C11.7576 27.3742 11.5469 27.8829 11.5469 28.4133Z" fill="#D4A93A"/>
<path d="M29.4668 17.0267C29.312 16.4743 28.9832 15.9866 28.5293 15.6359C28.0753 15.2853 27.5203 15.0903 26.9468 15.08H23.6268C23.5437 15.0774 23.4643 15.045 23.4031 14.9887C23.3419 14.9324 23.303 14.856 23.2935 14.7734C23.1933 14.2059 22.8965 13.6919 22.4552 13.3213C22.014 12.9507 21.4564 12.7473 20.8801 12.7467H17.6801C17.6191 12.7492 17.5599 12.7678 17.5084 12.8006C17.4569 12.8334 17.4149 12.8792 17.3868 12.9334C16.5522 14.5949 15.2725 15.9921 13.6905 16.9691C12.1085 17.9461 10.2862 18.4645 8.4268 18.4667H7.5868C7.48971 18.4655 7.3953 18.4986 7.32014 18.56C7.28569 18.5896 7.25826 18.6265 7.23981 18.668C7.22136 18.7095 7.21237 18.7546 7.21347 18.8V25.7467C7.21347 26.3655 7.4593 26.959 7.89689 27.3966C8.33447 27.8342 8.92796 28.08 9.5468 28.08H9.96014C10.0381 28.0816 10.1142 28.0558 10.1751 28.0071C10.236 27.9583 10.2779 27.8898 10.2935 27.8134C10.4242 27.0434 10.8233 26.3445 11.42 25.8406C12.0167 25.3367 12.7725 25.0603 13.5535 25.0603C14.3345 25.0603 15.0903 25.3367 15.687 25.8406C16.2837 26.3445 16.6827 27.0434 16.8135 27.8134C16.8259 27.89 16.8646 27.9599 16.923 28.011C16.9814 28.0621 17.0559 28.0913 17.1335 28.0934H22.6668C22.746 28.0918 22.8223 28.0632 22.8829 28.0122C22.9435 27.9613 22.9849 27.8911 23.0001 27.8134C23.1309 27.0434 23.53 26.3445 24.1266 25.8406C24.7233 25.3367 25.4791 25.0603 26.2601 25.0603C27.0411 25.0603 27.7969 25.3367 28.3936 25.8406C28.9903 26.3445 29.3894 27.0434 29.5201 27.8134C29.5326 27.8745 29.5661 27.9293 29.6148 27.9683C29.6636 28.0073 29.7244 28.028 29.7868 28.0267C30.1641 28.0071 30.5307 27.8946 30.854 27.6992C31.1773 27.5038 31.4474 27.2316 31.6401 26.9067C31.8417 26.5789 31.9698 26.2113 32.0159 25.8292C32.0619 25.4472 32.0247 25.0597 31.9068 24.6934L29.4668 17.0267ZM26.6668 17.7334C26.7372 17.7325 26.8062 17.7539 26.8637 17.7947C26.9212 17.8354 26.9643 17.8933 26.9868 17.96C27.0801 18.2267 27.2668 18.8 27.6401 19.9867C27.6625 20.0324 27.6741 20.0825 27.6741 20.1334C27.6741 20.1842 27.6625 20.2344 27.6401 20.28C27.6117 20.3241 27.5719 20.3597 27.525 20.3831C27.4781 20.4066 27.4258 20.417 27.3735 20.4134H23.5601C23.4717 20.4134 23.3869 20.3783 23.3244 20.3157C23.2619 20.2532 23.2268 20.1684 23.2268 20.08V18.08C23.2267 17.9939 23.26 17.9111 23.3197 17.8489C23.3793 17.7868 23.4607 17.7501 23.5468 17.7467L26.6668 17.7334Z" fill="#D4A93A"/>
<path d="M24.2134 28.4133C24.2134 28.9438 24.4241 29.4525 24.7992 29.8275C25.1742 30.2026 25.6829 30.4133 26.2134 30.4133C26.7438 30.4133 27.2525 30.2026 27.6276 29.8275C28.0027 29.4525 28.2134 28.9438 28.2134 28.4133C28.2134 27.8829 28.0027 27.3742 27.6276 26.9991C27.2525 26.624 26.7438 26.4133 26.2134 26.4133C25.6829 26.4133 25.1742 26.624 24.7992 26.9991C24.4241 27.3742 24.2134 27.8829 24.2134 28.4133Z" fill="#D4A93A"/>
<path d="M8.42667 16.8267C10.0901 16.824 11.7154 16.3283 13.0972 15.4023C14.479 14.4762 15.5553 13.1613 16.1901 11.6237C16.8248 10.0862 16.9895 8.39496 16.6634 6.76381C16.3372 5.13266 15.5349 3.6348 14.3577 2.4595C13.1806 1.28421 11.6815 0.484242 10.0498 0.160691C8.41813 -0.16286 6.72718 0.00452868 5.19062 0.641704C3.65406 1.27888 2.34086 2.35724 1.41698 3.74052C0.493101 5.12379 2.0889e-06 6.74989 0 8.41333C-1.38885e-06 9.5193 0.218057 10.6144 0.6417 11.6361C1.06534 12.6577 1.68626 13.5857 2.46892 14.3672C3.25158 15.1486 4.18064 15.768 5.20293 16.1901C6.22522 16.6121 7.32069 16.8284 8.42667 16.8267ZM14.16 8.41333C14.1626 9.55104 13.8275 10.6639 13.1971 11.611C12.5666 12.5581 11.6693 13.2967 10.6187 13.7333C9.56804 14.1699 8.41148 14.2848 7.29549 14.0635C6.17951 13.8422 5.15433 13.2946 4.34984 12.4902C3.54535 11.6857 2.99776 10.6605 2.77645 9.5445C2.55514 8.42851 2.67007 7.27195 3.10667 6.22134C3.54328 5.17073 4.28191 4.27336 5.22898 3.64292C6.17606 3.01249 7.28895 2.67736 8.42667 2.67999C9.94616 2.68351 11.4024 3.28869 12.4769 4.36314C13.5513 5.43758 14.1565 6.89383 14.16 8.41333Z" fill="#D4A93A"/>
<path d="M8.42659 9.74664H10.8799C11.2335 9.74664 11.5727 9.60616 11.8227 9.35611C12.0728 9.10607 12.2133 8.76693 12.2133 8.41331C12.2133 8.05968 12.0728 7.72055 11.8227 7.4705C11.5727 7.22045 11.2335 7.07997 10.8799 7.07997H10.0933C10.0049 7.07997 9.92007 7.04485 9.85756 6.98234C9.79505 6.91983 9.75993 6.83504 9.75993 6.74664V5.34664C9.75993 4.99302 9.61945 4.65388 9.3694 4.40383C9.11936 4.15378 8.78022 4.01331 8.42659 4.01331C8.07297 4.01331 7.73383 4.15378 7.48379 4.40383C7.23374 4.65388 7.09326 4.99302 7.09326 5.34664V8.41331C7.09326 8.76693 7.23374 9.10607 7.48379 9.35611C7.73383 9.60616 8.07297 9.74664 8.42659 9.74664Z" fill="#D4A93A"/>
</svg>
