<svg width="32" height="32" viewBox="0 0 32 32" fill="none" xmlns="http://www.w3.org/2000/svg">
<path d="M14.4838 12.4559C14.8196 12.5514 15.1796 12.5114 15.4863 12.3443C15.7929 12.1773 16.0218 11.8966 16.1238 11.5626L17.8838 5.64258C18.0323 5.13457 17.9748 4.58852 17.7238 4.12258C17.6016 3.88885 17.4336 3.68217 17.2297 3.51493C17.0258 3.34768 16.7902 3.2233 16.5371 3.14924L6.24375 0.0825765C5.73633 -0.0674053 5.19025 -0.0116012 4.72365 0.237918C4.25705 0.487438 3.90743 0.910613 3.75042 1.41591L1.95042 7.44258C1.85447 7.7829 1.89764 8.14741 2.07042 8.45591C2.14972 8.61151 2.26066 8.74882 2.39613 8.85903C2.5316 8.96924 2.68861 9.04993 2.85709 9.09591L14.4838 12.4559Z" fill="#D4A93A"/>
<path d="M22.6439 12.6693C20.8406 12.6487 19.0439 12.8913 17.3106 13.3893C15.2573 14.0826 14.0439 15.1626 14.0439 16.056V28.056C14.0439 29.896 17.9239 31.3893 22.7106 31.3893C27.4973 31.3893 31.3773 29.896 31.3773 28.056V16.0026C31.3106 14.1626 27.4306 12.6693 22.6439 12.6693ZM28.9906 23.9226C29.0032 24.189 28.9619 24.4552 28.8694 24.7054C28.7769 24.9555 28.6349 25.1845 28.452 25.3786C28.2691 25.5727 28.049 25.728 27.8048 25.8352C27.5606 25.9424 27.2973 25.9993 27.0306 26.0026C26.4859 25.9922 25.9671 25.7684 25.5856 25.3794C25.2042 24.9905 24.9905 24.4674 24.9906 23.9226C24.9906 23.5549 24.8445 23.2022 24.5845 22.9421C24.3244 22.6821 23.9717 22.536 23.6039 22.536C23.2362 22.536 22.8835 22.6821 22.6234 22.9421C22.3634 23.2022 22.2173 23.5549 22.2173 23.9226C22.2173 24.2904 22.0712 24.6431 21.8111 24.9032C21.5511 25.1632 21.1984 25.3093 20.8306 25.3093C20.4628 25.3093 20.1101 25.1632 19.8501 24.9032C19.59 24.6431 19.4439 24.2904 19.4439 23.9226V19.4693C19.4448 19.3043 19.3919 19.1435 19.2933 19.0112C19.1947 18.8789 19.0557 18.7823 18.8973 18.736C17.0973 18.256 16.1506 17.4826 16.1506 17.0826C16.1506 16.4826 18.3373 15.016 22.3906 15.016C25.8573 15.016 29.0573 16.136 29.0573 18.1493L28.9906 23.9226Z" fill="#D4A93A"/>
<path d="M11.8173 13.7759L0.990658 10.6692L0.697324 11.6692C0.312234 12.9721 0.293933 14.3559 0.644435 15.6686C0.994937 16.9812 1.70066 18.1717 2.68399 19.1092L0.137325 27.6959C0.0125676 28.1178 -0.0277482 28.5603 0.0186845 28.9978C0.0651173 29.4354 0.197387 29.8595 0.407923 30.2459C0.61846 30.6323 0.903129 30.9734 1.24564 31.2497C1.58815 31.5259 1.98178 31.7319 2.40399 31.8559C2.70909 31.9575 3.02911 32.0071 3.35066 32.0025C4.0747 32.0076 4.78056 31.7759 5.36068 31.3426C5.9408 30.9093 6.36336 30.2982 6.56399 29.6025L9.12399 21.0025C10.2005 20.7803 11.2154 20.3252 12.0973 19.6692C12.2567 19.5533 12.3884 19.4035 12.4829 19.2305C12.5774 19.0576 12.6324 18.8659 12.644 18.6692V16.0025C12.6423 15.7944 12.6738 15.5874 12.7373 15.3892C12.8238 15.0534 12.7762 14.6972 12.6044 14.396C12.4327 14.0948 12.1503 13.8724 11.8173 13.7759ZM3.33732 29.4959C3.07211 29.4959 2.81775 29.3905 2.63022 29.203C2.44268 29.0154 2.33732 28.7611 2.33732 28.4959C2.33732 28.2306 2.44268 27.9763 2.63022 27.7887C2.81775 27.6012 3.07211 27.4959 3.33732 27.4959C3.60254 27.4959 3.85689 27.6012 4.04443 27.7887C4.23197 27.9763 4.33732 28.2306 4.33732 28.4959C4.33732 28.7611 4.23197 29.0154 4.04443 29.203C3.85689 29.3905 3.60254 29.4959 3.33732 29.4959Z" fill="#D4A93A"/>
</svg>
