<svg width="32" height="32" viewBox="0 0 32 32" fill="none" xmlns="http://www.w3.org/2000/svg">
<g clip-path="url(#clip0_162_217)">
<path d="M31.3336 4.65656e-05H27.3336C27.2461 -0.00101933 27.1594 0.0162245 27.0791 0.0506691C26.9987 0.0851138 26.9264 0.135997 26.8669 0.200047L14.1602 12.9067C12.028 11.9312 9.62077 11.736 7.35922 12.3553C5.09768 12.9745 3.12563 14.3687 1.78771 16.2943C0.449784 18.2199 -0.168936 20.5544 0.039668 22.8899C0.248272 25.2254 1.27094 27.4133 2.92895 29.0713C4.58696 30.7293 6.77488 31.752 9.11036 31.9606C11.4458 32.1692 13.7804 31.5505 15.706 30.2126C17.6316 28.8746 19.0258 26.9026 19.645 24.6411C20.2642 22.3795 20.069 19.9723 19.0936 17.84L22.1869 14.76L24.7602 15.6267C24.9848 15.7077 25.227 15.7269 25.4615 15.6824C25.6961 15.6378 25.9143 15.5311 26.0936 15.3734C26.266 15.2263 26.3981 15.0378 26.4775 14.8255C26.5568 14.6132 26.5807 14.3841 26.5469 14.16L26.0136 10.9334L26.9736 9.96005L28.9202 10.8534C29.1468 10.954 29.3969 10.9895 29.6425 10.9558C29.8881 10.9221 30.1195 10.8206 30.3106 10.6628C30.5017 10.5049 30.645 10.2968 30.7245 10.062C30.8039 9.82719 30.8163 9.57486 30.7602 9.33338L30.0802 6.92005L31.8002 5.18671C31.8714 5.12133 31.9265 5.04037 31.9612 4.95016C31.9959 4.85995 32.0092 4.76294 32.0002 4.66671V0.666713C32.0002 0.489902 31.93 0.320333 31.805 0.195309C31.6799 0.0702845 31.5104 4.65656e-05 31.3336 4.65656e-05ZM9.33356 24.6667C9.33356 25.0623 9.21626 25.449 8.9965 25.7779C8.77674 26.1068 8.46438 26.3631 8.09893 26.5145C7.73348 26.6658 7.33134 26.7055 6.94338 26.6283C6.55542 26.5511 6.19905 26.3606 5.91935 26.0809C5.63964 25.8012 5.44916 25.4449 5.37199 25.0569C5.29482 24.6689 5.33443 24.2668 5.4858 23.9013C5.63718 23.5359 5.89352 23.2235 6.22242 23.0038C6.55132 22.784 6.938 22.6667 7.33356 22.6667C7.864 22.6667 8.3727 22.8774 8.74778 23.2525C9.12285 23.6276 9.33356 24.1363 9.33356 24.6667Z" fill="#D4A93A"/>
</g>
<defs>
<clipPath id="clip0_162_217">
<rect width="32" height="32" fill="white"/>
</clipPath>
</defs>
</svg>
